<svg width="720" height="720" viewBox="0 0 720 720" fill="none" xmlns="http://www.w3.org/2000/svg">
<path fill-rule="evenodd" clip-rule="evenodd" d="M100 0C44.7715 0 0 44.7715 0 100V620C0 675.228 44.7715 720 100 720H473.978C502.602 705.074 524.612 685.901 540.01 662.481C557.891 635.926 561.683 611.442 551.386 589.027C538.864 561.765 517.008 546.128 485.818 542.114C454.35 537.494 410.455 543.352 354.132 559.687C212.555 601.245 117.834 569.925 69.9697 465.726C52.4379 427.56 47.2672 389.952 54.4578 352.902C61.3702 315.245 78.7525 281.216 106.605 250.815C134.179 219.807 169.169 194.564 211.575 175.084C249.741 157.552 288.128 146.889 326.734 143.093C365.947 139.02 401.074 141.225 432.116 149.708C456.085 155.572 472.243 167.591 480.592 185.765C486.992 199.698 487.548 214.483 482.258 230.118C476.69 245.148 466.94 255.863 453.006 262.263C443.919 266.438 434.488 267.468 424.714 265.355C403.119 259.869 375.72 258.516 342.516 261.296C309.64 263.193 281.994 269.289 259.579 279.586C221.413 297.118 195.068 318.023 180.544 342.303C166.347 365.698 164.536 388.906 175.111 411.926C187.077 437.976 206.723 452.795 234.048 456.383C261.979 459.692 300.914 455.013 350.851 442.345C407.125 427.5 454.049 420.25 491.624 420.597C529.527 420.06 562.058 428.593 589.219 446.196C616.101 463.193 638.865 491.986 657.51 532.575C675.042 570.741 679.582 609.372 671.13 648.469C666.003 672.585 656.817 695.497 643.572 717.206C687.426 706.609 720 667.109 720 620V100C720 44.7715 675.228 0 620 0H100Z" fill="url(#paint0_linear)"/>
<defs>
<linearGradient id="paint0_linear" x1="720" y1="0" x2="0" y2="720" gradientUnits="userSpaceOnUse">
<stop stop-color="#4C5597"/>
<stop offset="1" stop-color="#232955"/>
</linearGradient>
</defs>
</svg>
