<svg width="1925" height="400" viewBox="0 0 1925 400" fill="none" xmlns="http://www.w3.org/2000/svg">
<rect y="58" width="420" height="80" rx="10" fill="url(#paint0_linear)"/>
<rect x="295" y="160" width="125" height="80" rx="10" fill="url(#paint1_linear)"/>
<rect y="160" width="125" height="80" rx="10" fill="url(#paint2_linear)"/>
<rect y="262" width="200" height="80" rx="10" fill="url(#paint3_linear)"/>
<rect x="220" y="262" width="200" height="80" rx="10" fill="url(#paint4_linear)"/>
<rect x="147" y="160" width="125" height="80" rx="10" fill="url(#paint5_linear)"/>
<path d="M578 323.2C562.64 323.2 548.987 321.28 537.04 317.44C525.093 313.6 513.893 307.093 503.44 297.92C497.68 292.8 494.8 287.147 494.8 280.96C494.8 276.053 496.613 271.787 500.24 268.16C503.867 264.32 508.24 262.4 513.36 262.4C517.413 262.4 521.04 263.68 524.24 266.24C532.773 273.28 541.093 278.4 549.2 281.6C557.307 284.8 566.907 286.4 578 286.4C589.947 286.4 600.187 283.733 608.72 278.4C617.467 273.067 621.84 266.453 621.84 258.56C621.84 248.96 617.573 241.493 609.04 236.16C600.507 230.613 586.96 226.453 568.4 223.68C521.68 216.853 498.32 195.093 498.32 158.4C498.32 144.96 501.84 133.333 508.88 123.52C515.92 113.493 525.52 105.92 537.68 100.8C549.84 95.4667 563.387 92.8 578.32 92.8C591.76 92.8 604.347 94.8267 616.08 98.88C628.027 102.933 637.947 108.267 645.84 114.88C652.027 119.787 655.12 125.44 655.12 131.84C655.12 136.747 653.307 141.12 649.68 144.96C646.053 148.587 641.787 150.4 636.88 150.4C633.68 150.4 630.8 149.44 628.24 147.52C622.693 143.04 614.907 138.987 604.88 135.36C595.067 131.52 586.213 129.6 578.32 129.6C564.88 129.6 554.427 132.16 546.96 137.28C539.707 142.187 536.08 148.693 536.08 156.8C536.08 165.973 539.813 172.907 547.28 177.6C554.96 182.293 566.907 186.133 583.12 189.12C601.467 192.32 616.08 196.48 626.96 201.6C638.053 206.507 646.373 213.333 651.92 222.08C657.467 230.613 660.24 242.027 660.24 256.32C660.24 269.76 656.4 281.6 648.72 291.84C641.253 301.867 631.227 309.653 618.64 315.2C606.053 320.533 592.507 323.2 578 323.2ZM858.218 234.56C858.218 251.627 854.378 266.987 846.698 280.64C839.018 294.08 828.458 304.533 815.018 312C801.791 319.467 787.178 323.2 771.178 323.2C754.964 323.2 740.244 319.467 727.018 312C713.791 304.533 703.338 294.08 695.658 280.64C687.978 266.987 684.138 251.627 684.138 234.56C684.138 217.493 687.978 202.24 695.658 188.8C703.338 175.147 713.791 164.587 727.018 157.12C740.244 149.44 754.964 145.6 771.178 145.6C787.178 145.6 801.791 149.44 815.018 157.12C828.458 164.587 839.018 175.147 846.698 188.8C854.378 202.24 858.218 217.493 858.218 234.56ZM819.818 234.56C819.818 224.107 817.578 214.827 813.098 206.72C808.831 198.4 802.964 192 795.498 187.52C788.244 183.04 780.138 180.8 771.178 180.8C762.218 180.8 754.004 183.04 746.538 187.52C739.284 192 733.418 198.4 728.938 206.72C724.671 214.827 722.538 224.107 722.538 234.56C722.538 245.013 724.671 254.293 728.938 262.4C733.418 270.507 739.284 276.8 746.538 281.28C754.004 285.76 762.218 288 771.178 288C780.138 288 788.244 285.76 795.498 281.28C802.964 276.8 808.831 270.507 813.098 262.4C817.578 254.293 819.818 245.013 819.818 234.56ZM931.9 300.48C931.9 306.027 929.98 310.72 926.14 314.56C922.513 318.187 917.927 320 912.38 320C907.047 320 902.567 318.187 898.94 314.56C895.313 310.72 893.5 306.027 893.5 300.48V102.72C893.5 97.1733 895.313 92.5867 898.94 88.96C902.78 85.12 907.473 83.2 913.02 83.2C918.353 83.2 922.833 85.12 926.46 88.96C930.087 92.5867 931.9 97.1733 931.9 102.72V300.48ZM1012.71 300.48C1012.71 306.027 1010.9 310.72 1007.27 314.56C1003.64 318.187 999.057 320 993.51 320C987.963 320 983.377 318.187 979.75 314.56C976.123 310.72 974.31 306.027 974.31 300.48V168.32C974.31 162.773 976.123 158.187 979.75 154.56C983.377 150.72 987.963 148.8 993.51 148.8C999.057 148.8 1003.64 150.72 1007.27 154.56C1010.9 158.187 1012.71 162.773 1012.71 168.32V300.48ZM993.19 128C985.937 128 980.817 126.827 977.83 124.48C974.843 122.133 973.35 117.973 973.35 112V105.92C973.35 99.9467 974.95 95.7867 978.15 93.44C981.35 91.0933 986.47 89.92 993.51 89.92C1000.98 89.92 1006.2 91.0933 1009.19 93.44C1012.18 95.7867 1013.67 99.9467 1013.67 105.92V112C1013.67 118.187 1012.07 122.453 1008.87 124.8C1005.88 126.933 1000.66 128 993.19 128ZM1190.74 83.2C1196.28 83.2 1200.87 85.0133 1204.5 88.64C1208.12 92.2667 1209.94 96.96 1209.94 102.72V300.48C1209.94 306.027 1208.12 310.72 1204.5 314.56C1200.87 318.187 1196.28 320 1190.74 320C1185.19 320 1180.6 318.187 1176.98 314.56C1173.56 310.933 1171.75 306.347 1171.54 300.8C1166.2 306.987 1158.95 312.32 1149.78 316.8C1140.82 321.067 1131.32 323.2 1121.3 323.2C1106.58 323.2 1093.24 319.467 1081.3 312C1069.35 304.32 1059.86 293.76 1052.82 280.32C1045.99 266.88 1042.58 251.627 1042.58 234.56C1042.58 217.493 1045.99 202.24 1052.82 188.8C1059.64 175.147 1068.92 164.587 1080.66 157.12C1092.6 149.44 1105.72 145.6 1120.02 145.6C1130.26 145.6 1139.86 147.52 1148.82 151.36C1157.78 154.987 1165.35 159.68 1171.54 165.44V102.72C1171.54 97.1733 1173.35 92.5867 1176.98 88.96C1180.6 85.12 1185.19 83.2 1190.74 83.2ZM1126.1 288C1139.96 288 1151.27 282.987 1160.02 272.96C1168.76 262.72 1173.14 249.92 1173.14 234.56C1173.14 219.2 1168.76 206.4 1160.02 196.16C1151.27 185.92 1139.96 180.8 1126.1 180.8C1112.44 180.8 1101.24 185.92 1092.5 196.16C1083.75 206.4 1079.38 219.2 1079.38 234.56C1079.38 249.92 1083.64 262.72 1092.18 272.96C1100.92 282.987 1112.23 288 1126.1 288ZM1384.44 132.8V189.12H1453.56C1459.1 189.12 1463.69 190.933 1467.32 194.56C1471.16 197.973 1473.08 202.453 1473.08 208C1473.08 212.693 1471.16 216.853 1467.32 220.48C1463.69 224.107 1459.1 225.92 1453.56 225.92H1384.44V300.48C1384.44 306.027 1382.41 310.72 1378.36 314.56C1374.52 318.187 1369.93 320 1364.6 320C1358.62 320 1353.72 318.187 1349.88 314.56C1346.25 310.933 1344.44 306.24 1344.44 300.48V115.52C1344.44 109.973 1346.25 105.387 1349.88 101.76C1353.72 97.92 1358.41 96 1363.96 96H1467.96C1473.5 96 1478.09 97.8133 1481.72 101.44C1485.56 104.853 1487.48 109.333 1487.48 114.88C1487.48 119.573 1485.56 123.733 1481.72 127.36C1478.09 130.987 1473.5 132.8 1467.96 132.8H1384.44ZM1562.53 300.48C1562.53 306.027 1560.61 310.72 1556.77 314.56C1553.14 318.187 1548.55 320 1543.01 320C1537.67 320 1533.19 318.187 1529.57 314.56C1525.94 310.72 1524.13 306.027 1524.13 300.48V102.72C1524.13 97.1733 1525.94 92.5867 1529.57 88.96C1533.41 85.12 1538.1 83.2 1543.65 83.2C1548.98 83.2 1553.46 85.12 1557.09 88.96C1560.71 92.5867 1562.53 97.1733 1562.53 102.72V300.48ZM1757.65 230.4C1757.44 235.52 1755.41 239.68 1751.57 242.88C1747.73 246.08 1743.25 247.68 1738.13 247.68H1632.53C1635.09 260.267 1640.96 270.187 1650.13 277.44C1659.3 284.48 1669.65 288 1681.17 288C1689.92 288 1696.74 287.253 1701.65 285.76C1706.56 284.053 1710.4 282.347 1713.17 280.64C1716.16 278.72 1718.18 277.44 1719.25 276.8C1723.09 274.88 1726.72 273.92 1730.13 273.92C1734.61 273.92 1738.45 275.52 1741.65 278.72C1744.85 281.92 1746.45 285.653 1746.45 289.92C1746.45 295.68 1743.46 300.907 1737.49 305.6C1731.52 310.507 1723.52 314.667 1713.49 318.08C1703.46 321.493 1693.33 323.2 1683.09 323.2C1665.17 323.2 1649.49 319.467 1636.05 312C1622.82 304.533 1612.58 294.293 1605.33 281.28C1598.08 268.053 1594.45 253.227 1594.45 236.8C1594.45 218.453 1598.29 202.347 1605.97 188.48C1613.65 174.613 1623.78 164.053 1636.37 156.8C1648.96 149.333 1662.4 145.6 1676.69 145.6C1690.77 145.6 1704 149.44 1716.37 157.12C1728.96 164.8 1738.98 175.147 1746.45 188.16C1753.92 201.173 1757.65 215.253 1757.65 230.4ZM1676.69 180.8C1651.94 180.8 1637.33 192.427 1632.85 215.68H1716.69V213.44C1715.84 204.48 1711.46 196.8 1703.57 190.4C1695.68 184 1686.72 180.8 1676.69 180.8ZM1915.76 289.6C1918.53 293.013 1919.92 296.853 1919.92 301.12C1919.92 306.453 1917.89 311.04 1913.84 314.88C1909.78 318.72 1905.3 320.64 1900.4 320.64C1894.21 320.64 1888.98 317.867 1884.72 312.32L1846.32 264.64L1808.88 312.32C1806.96 314.88 1804.61 316.907 1801.84 318.4C1799.28 319.68 1796.5 320.32 1793.52 320.32C1789.04 320.32 1784.77 318.613 1780.72 315.2C1776.66 311.787 1774.64 307.84 1774.64 303.36C1774.64 299.093 1776.24 295.04 1779.43 291.2L1823.92 236.8L1777.84 179.52C1775.06 176.107 1773.68 172.267 1773.68 168C1773.68 162.667 1775.6 158.187 1779.43 154.56C1783.49 150.72 1788.08 148.8 1793.2 148.8C1799.38 148.8 1804.61 151.467 1808.88 156.8L1848.24 205.76L1884.72 157.44C1888.77 151.68 1893.89 148.8 1900.08 148.8C1905.2 148.8 1909.46 150.613 1912.88 154.24C1916.5 157.653 1918.32 161.6 1918.32 166.08C1918.32 170.773 1916.82 174.933 1913.84 178.56L1869.68 232.32L1915.76 289.6Z" fill="black"/>
<defs>
<linearGradient id="paint0_linear" x1="210" y1="58" x2="210" y2="138" gradientUnits="userSpaceOnUse">
<stop stop-color="#DB0C63"/>
<stop offset="1" stop-color="#A10949"/>
</linearGradient>
<linearGradient id="paint1_linear" x1="357.5" y1="160" x2="357.5" y2="240" gradientUnits="userSpaceOnUse">
<stop stop-color="#DB0C63"/>
<stop offset="1" stop-color="#A10949"/>
</linearGradient>
<linearGradient id="paint2_linear" x1="62.5" y1="160" x2="62.5" y2="240" gradientUnits="userSpaceOnUse">
<stop stop-color="#DB0C63"/>
<stop offset="1" stop-color="#A10949"/>
</linearGradient>
<linearGradient id="paint3_linear" x1="100" y1="262" x2="100" y2="342" gradientUnits="userSpaceOnUse">
<stop stop-color="#DB0C63"/>
<stop offset="1" stop-color="#A10949"/>
</linearGradient>
<linearGradient id="paint4_linear" x1="320" y1="262" x2="320" y2="342" gradientUnits="userSpaceOnUse">
<stop stop-color="#DB0C63"/>
<stop offset="1" stop-color="#A10949"/>
</linearGradient>
<linearGradient id="paint5_linear" x1="209.5" y1="160" x2="209.5" y2="240" gradientUnits="userSpaceOnUse">
<stop stop-color="#DB0C63"/>
<stop offset="1" stop-color="#A10949"/>
</linearGradient>
</defs>
</svg>
